<svg width="158" height="130" viewBox="0 0 158 130" fill="none" xmlns="http://www.w3.org/2000/svg">
<path d="M154.962 57.5529H134.348V37.7482C134.348 36.9402 134.028 36.1652 133.458 35.5938C132.888 35.0224 132.116 34.7014 131.31 34.7014H117.254V22.3615C117.254 21.5534 116.934 20.7785 116.364 20.2071C115.794 19.6357 115.022 19.3147 114.216 19.3147H100.945V3.04688C100.945 2.23879 100.625 1.46381 100.055 0.892407C99.4855 0.321007 98.7127 0 97.9068 0C97.101 0 96.3281 0.321007 95.7583 0.892407C95.1885 1.46381 94.8684 2.23879 94.8684 3.04688V19.3147H83.0513V3.04688C83.0513 2.23879 82.7312 1.46381 82.1613 0.892407C81.5915 0.321007 80.8187 0 80.0128 0C79.207 0 78.4341 0.321007 77.8643 0.892407C77.2945 1.46381 76.9744 2.23879 76.9744 3.04688V19.3147H65.1573V3.04688C65.1573 2.23879 64.8371 1.46381 64.2673 0.892407C63.6975 0.321007 62.9247 0 62.1188 0C61.313 0 60.5401 0.321007 59.9703 0.892407C59.4005 1.46381 59.0803 2.23879 59.0803 3.04688V19.3147H43.8171C43.0113 19.3147 42.2385 19.6357 41.6686 20.2071C41.0988 20.7785 40.7787 21.5534 40.7787 22.3615V34.7064H26.6904C25.8845 34.7064 25.1117 35.0275 24.5418 35.5989C23.972 36.1703 23.6519 36.9452 23.6519 37.7533V57.558H3.03846C2.23261 57.558 1.45977 57.879 0.889946 58.4504C0.320124 59.0218 0 59.7968 0 60.6049V126.953C0 127.761 0.320124 128.536 0.889946 129.108C1.45977 129.679 2.23261 130 3.03846 130H154.962C155.767 130 156.54 129.679 157.11 129.108C157.68 128.536 158 127.761 158 126.953V60.5998C158 59.7917 157.68 59.0167 157.11 58.4453C156.54 57.8739 155.767 57.5529 154.962 57.5529V57.5529ZM46.8556 25.4084H111.17V34.7064H46.8556V25.4084ZM29.7288 40.8002H128.271V57.558H29.7288V40.8002ZM6.07692 123.906V105.33C7.67117 106.072 9.42594 106.398 11.1792 106.279C12.9324 106.161 14.6276 105.601 16.1081 104.652C17.5885 103.703 18.8067 102.395 19.6499 100.849C20.4931 99.3026 20.9342 97.5685 20.9325 95.8064V88.0217C20.9331 86.8546 21.3956 85.7356 22.2183 84.9101C23.041 84.0847 24.1567 83.6203 25.3205 83.6189H26.3333C27.4971 83.6203 28.6129 84.0847 29.4356 84.9101C30.2583 85.7356 30.7207 86.8546 30.7214 88.0217V103.086C30.7214 106.453 32.0552 109.682 34.4295 112.063C36.8037 114.444 40.0239 115.781 43.3816 115.781C46.7393 115.781 49.9595 114.444 52.3338 112.063C54.708 109.682 56.0419 106.453 56.0419 103.086V90.5607C56.0256 89.7723 56.1664 88.9886 56.456 88.2555C56.7457 87.5224 57.1783 86.8546 57.7285 86.2912C58.2788 85.7279 58.9357 85.2804 59.6606 84.9748C60.3856 84.6693 61.1641 84.5119 61.9504 84.5119C62.7368 84.5119 63.5153 84.6693 64.2402 84.9748C64.9652 85.2804 65.6221 85.7279 66.1723 86.2912C66.7226 86.8546 67.1552 87.5224 67.4448 88.2555C67.7345 88.9886 67.8752 89.7723 67.859 90.5607V94.1154C67.8623 96.8976 68.966 99.5648 70.9278 101.532C72.8896 103.499 75.5495 104.606 78.3239 104.609H79.6761C82.4505 104.606 85.1104 103.499 87.0722 101.532C89.034 99.5648 90.1377 96.8976 90.141 94.1154V90.5607C90.1247 89.7723 90.2655 88.9886 90.5552 88.2555C90.8448 87.5224 91.2774 86.8546 91.8277 86.2912C92.3779 85.7279 93.0348 85.2804 93.7598 84.9748C94.4847 84.6693 95.2632 84.5119 96.0496 84.5119C96.836 84.5119 97.6144 84.6693 98.3394 84.9748C99.0643 85.2804 99.7212 85.7279 100.271 86.2912C100.822 86.8546 101.254 87.5224 101.544 88.2555C101.834 88.9886 101.974 89.7723 101.958 90.5607V103.086C101.958 106.453 103.292 109.682 105.666 112.063C108.04 114.444 111.261 115.781 114.618 115.781C117.976 115.781 121.196 114.444 123.571 112.063C125.945 109.682 127.279 106.453 127.279 103.086V88.0217C127.279 86.8546 127.742 85.7356 128.564 84.9101C129.387 84.0847 130.503 83.6203 131.667 83.6189H132.679C133.843 83.6203 134.959 84.0847 135.782 84.9101C136.604 85.7356 137.067 86.8546 137.068 88.0217V95.8064C137.066 97.5685 137.507 99.3026 138.35 100.849C139.193 102.395 140.411 103.703 141.892 104.652C143.372 105.601 145.068 106.161 146.821 106.279C148.574 106.398 150.329 106.072 151.923 105.33V123.906H6.07692Z" fill="#C99992"/>
</svg>
