<svg width="1917" height="1081" viewBox="0 0 1917 1081" fill="none" xmlns="http://www.w3.org/2000/svg">
<g opacity="0.05">
<path d="M106.178 864.146L0.000366211 972.106L106.122 1080.01L212.299 972.048L106.178 864.146Z" fill="#C99992"/>
<path d="M106.235 648.815L0.0575867 756.775L106.179 864.677L212.357 756.718L106.235 648.815Z" fill="#C99992"/>
<path d="M106.303 433.495L0.124786 541.455L106.246 649.357L212.424 541.397L106.303 433.495Z" fill="#C99992"/>
<path d="M106.35 216.995L0.171753 324.954L106.293 432.857L212.471 324.897L106.35 216.995Z" fill="#C99992"/>
<path d="M106.412 0.484581L0.234558 108.444L106.356 216.346L212.534 108.387L106.412 0.484581Z" fill="#C99992"/>
<path d="M319.11 864.087L212.932 972.047L319.054 1079.95L425.231 971.989L319.11 864.087Z" fill="#C99992"/>
<path d="M319.167 648.757L212.99 756.716L319.111 864.618L425.288 756.659L319.167 648.757Z" fill="#C99992"/>
<path d="M319.224 433.436L213.047 541.396L319.168 649.298L425.346 541.338L319.224 433.436Z" fill="#C99992"/>
<path d="M319.288 216.943L213.111 324.903L319.232 432.805L425.41 324.845L319.288 216.943Z" fill="#C99992"/>
<path d="M319.351 0.418519L213.174 108.378L319.295 216.28L425.473 108.321L319.351 0.418519Z" fill="#C99992"/>
<path d="M532.039 864.021L425.861 971.981L531.982 1079.88L638.16 971.923L532.039 864.021Z" fill="#C99992"/>
<path d="M532.106 648.691L425.928 756.65L532.05 864.552L638.227 756.593L532.106 648.691Z" fill="#C99992"/>
<path d="M532.156 433.377L425.979 541.337L532.1 649.239L638.278 541.279L532.156 433.377Z" fill="#C99992"/>
<path d="M532.22 216.884L426.043 324.844L532.164 432.746L638.342 324.787L532.22 216.884Z" fill="#C99992"/>
<path d="M532.273 0.359717L426.095 108.319L532.217 216.221L638.394 108.262L532.273 0.359717Z" fill="#C99992"/>
<path d="M744.971 863.962L638.793 971.922L744.914 1079.82L851.092 971.865L744.971 863.962Z" fill="#C99992"/>
<path d="M745.038 648.642L638.86 756.602L744.982 864.504L851.159 756.544L745.038 648.642Z" fill="#C99992"/>
<path d="M745.095 433.311L638.918 541.271L745.039 649.173L851.217 541.213L745.095 433.311Z" fill="#C99992"/>
<path d="M745.159 216.818L638.982 324.778L745.103 432.68L851.281 324.72L745.159 216.818Z" fill="#C99992"/>
<path d="M745.212 0.293666L639.034 108.253L745.156 216.155L851.333 108.196L745.212 0.293666Z" fill="#C99992"/>
<path d="M957.91 863.896L851.732 971.856L957.853 1079.76L1064.03 971.798L957.91 863.896Z" fill="#C99992"/>
<path d="M957.96 648.583L851.782 756.543L957.903 864.445L1064.08 756.485L957.96 648.583Z" fill="#C99992"/>
<path d="M958.027 433.252L851.85 541.212L957.971 649.114L1064.15 541.154L958.027 433.252Z" fill="#C99992"/>
<path d="M958.081 216.759L851.904 324.719L958.025 432.621L1064.2 324.662L958.081 216.759Z" fill="#C99992"/>
<path d="M958.144 0.234807L851.966 108.194L958.088 216.097L1064.27 108.137L958.144 0.234807Z" fill="#C99992"/>
<path d="M1170.85 863.845L1064.67 971.804L1170.79 1079.71L1276.97 971.747L1170.85 863.845Z" fill="#C99992"/>
<path d="M1170.9 648.517L1064.72 756.477L1170.84 864.379L1277.02 756.419L1170.9 648.517Z" fill="#C99992"/>
<path d="M1170.96 433.186L1064.78 541.146L1170.9 649.048L1277.08 541.089L1170.96 433.186Z" fill="#C99992"/>
<path d="M1171.02 216.693L1064.84 324.653L1170.96 432.555L1277.14 324.596L1171.02 216.693Z" fill="#C99992"/>
<path d="M1171.07 0.186081L1064.89 108.146L1171.01 216.048L1277.19 108.088L1171.07 0.186081Z" fill="#C99992"/>
<path d="M1383.77 863.786L1277.59 971.746L1383.71 1079.65L1489.89 971.688L1383.77 863.786Z" fill="#C99992"/>
<path d="M1383.84 648.465L1277.66 756.425L1383.78 864.327L1489.96 756.367L1383.84 648.465Z" fill="#C99992"/>
<path d="M1383.89 433.127L1277.71 541.087L1383.83 648.989L1490.01 541.03L1383.89 433.127Z" fill="#C99992"/>
<path d="M1383.95 216.635L1277.77 324.594L1383.9 432.496L1490.07 324.537L1383.95 216.635Z" fill="#C99992"/>
<path d="M1384.01 0.127246L1277.83 108.087L1383.96 215.989L1490.13 108.029L1384.01 0.127246Z" fill="#C99992"/>
<path d="M1596.71 863.72L1490.53 971.68L1596.65 1079.58L1702.83 971.622L1596.71 863.72Z" fill="#C99992"/>
<path d="M1596.77 648.399L1490.59 756.359L1596.71 864.261L1702.89 756.301L1596.77 648.399Z" fill="#C99992"/>
<path d="M1596.82 433.079L1490.64 541.038L1596.76 648.94L1702.94 540.981L1596.82 433.079Z" fill="#C99992"/>
<path d="M1596.87 216.586L1490.7 324.546L1596.82 432.448L1703 324.488L1596.87 216.586Z" fill="#C99992"/>
<path d="M1596.94 0.0684973L1490.77 108.028L1596.89 215.93L1703.07 107.971L1596.94 0.0684973Z" fill="#C99992"/>
<path d="M1809.64 863.661L1703.46 971.621L1809.59 1079.52L1915.76 971.563L1809.64 863.661Z" fill="#C99992"/>
<path d="M1809.7 648.34L1703.52 756.3L1809.64 864.202L1915.82 756.243L1809.7 648.34Z" fill="#C99992"/>
<path d="M1809.76 433.02L1703.58 540.98L1809.7 648.882L1915.88 540.922L1809.76 433.02Z" fill="#C99992"/>
<path d="M1809.81 216.52L1703.64 324.479L1809.76 432.382L1915.93 324.422L1809.81 216.52Z" fill="#C99992"/>
<path d="M1809.88 0.00245727L1703.71 107.962L1809.83 215.864L1916 107.905L1809.88 0.00245727Z" fill="#C99992"/>
</g>
</svg>
